<?xml version="1.0" encoding="utf-8"?>
<svg xmlns="http://www.w3.org/2000/svg" xmlns:xlink="http://www.w3.org/1999/xlink" x="0px" y="0px" viewBox="0 0 452.1 86" enable-background="new 0 0 452.1 86" xml:space="preserve"><g><path fill="#FFFFFF" d="M15.9,21.5L30.9,2h18.9L32.9,21.4l18.9,36.4H33.3L21.5,33.8l-5.6,6.8v17.1H0.2V2h15.7V21.5z"/><path fill="#FFFFFF" d="M55.5,2h15.7v55.7H55.5V2z"/><path fill="#FFFFFF" d="M92.6,2L110,30.5V2h15.5v55.7h-13.7l-20-31.7v31.7H76.6V2H92.6z"/><path fill="#FFFFFF" d="M159.2,59.3c-4.3,0-8.3-0.7-11.9-2.2c-3.6-1.5-6.7-3.5-9.3-6.1c-2.6-2.6-4.6-5.7-6-9.3 c-1.4-3.6-2.2-7.5-2.2-11.8c0-4.1,0.7-8,2.2-11.6c1.5-3.6,3.5-6.7,6.1-9.4c2.6-2.7,5.7-4.8,9.3-6.3c3.6-1.5,7.5-2.3,11.8-2.3 c4.2,0,8,0.7,11.5,2.2c3.5,1.5,6.6,3.5,9.2,6.2c2.6,2.6,4.6,5.8,6.1,9.4c1.5,3.6,2.2,7.5,2.2,11.7c0,4.3-0.7,8.3-2.2,11.9 c-1.4,3.6-3.5,6.7-6,9.3c-2.6,2.6-5.7,4.6-9.2,6C167.3,58.6,163.4,59.3,159.2,59.3z M172.4,30c0-2.2-0.3-4.1-1-5.9 c-0.7-1.8-1.6-3.2-2.8-4.5c-1.2-1.2-2.6-2.2-4.2-2.8c-1.6-0.7-3.3-1-5-1c-1.9,0-3.7,0.3-5.4,1c-1.7,0.7-3.1,1.7-4.3,2.9 c-1.2,1.2-2.2,2.7-2.9,4.5c-0.7,1.8-1,3.7-1,5.7c0,1.9,0.4,3.6,1.1,5.3c0.7,1.7,1.7,3.2,2.9,4.4c1.2,1.3,2.7,2.3,4.3,3 c1.7,0.7,3.4,1.1,5.3,1.1c1.8,0,3.5-0.4,5.1-1.1c1.6-0.7,3-1.7,4.2-3c1.2-1.2,2.1-2.7,2.8-4.4C172,33.7,172.4,31.9,172.4,30z"/><path fill="#59C5E4" d="M202.1,2l12,33.9L226,2h15.7l-20.6,55.7h-14.1L186.5,2H202.1z"/><path fill="#59C5E4" d="M269.1,59.3c-4.3,0-8.3-0.7-11.9-2.2c-3.6-1.5-6.7-3.5-9.3-6.1c-2.6-2.6-4.6-5.7-6-9.3 c-1.4-3.6-2.2-7.5-2.2-11.8c0-4.1,0.7-8,2.2-11.6c1.5-3.6,3.5-6.7,6.1-9.4s5.7-4.8,9.3-6.3c3.6-1.5,7.5-2.3,11.8-2.3 c4.2,0,8,0.7,11.5,2.2c3.5,1.5,6.6,3.5,9.2,6.2c2.6,2.6,4.6,5.8,6.1,9.4c1.5,3.6,2.2,7.5,2.2,11.7c0,4.3-0.7,8.3-2.2,11.9 c-1.4,3.6-3.5,6.7-6,9.3c-2.6,2.6-5.7,4.6-9.2,6C277.1,58.6,273.3,59.3,269.1,59.3z M282.3,30c0-2.2-0.3-4.1-1-5.9 c-0.7-1.8-1.6-3.2-2.8-4.5c-1.2-1.2-2.6-2.2-4.2-2.8c-1.6-0.7-3.3-1-5-1c-1.9,0-3.7,0.3-5.4,1c-1.7,0.7-3.1,1.7-4.3,2.9 c-1.2,1.2-2.2,2.7-2.9,4.5c-0.7,1.8-1,3.7-1,5.7c0,1.9,0.4,3.6,1.1,5.3c0.7,1.7,1.7,3.2,2.9,4.4c1.2,1.3,2.7,2.3,4.3,3 c1.7,0.7,3.4,1.1,5.3,1.1c1.8,0,3.5-0.4,5.1-1.1c1.6-0.7,3-1.7,4.2-3c1.2-1.2,2.1-2.7,2.8-4.4C281.9,33.7,282.3,31.9,282.3,30z"/><path fill="#59C5E4" d="M302.6,2h15.7v43.8h24v12h-39.7V2z"/><path fill="#59C5E4" d="M362.1,2l17.4,28.4V2h15.5v55.7h-13.7l-20-31.7v31.7H346V2H362.1z"/><path fill="#59C5E4" d="M397.7,57.8L416.2,2h17.1L452,57.8h-16.4l-2.1-7.3h-18.2l-2.1,7.3H397.7z M424.5,18.8l-5.6,19.9h11.5 L424.5,18.8z"/></g><g><path fill="#FFFFFF" d="M42.9,78.4c0,2.9-1.4,4.3-4.3,4.3H28.5V68.3h13v2.9H31.4v2.9h7.2C41.5,74.1,42.9,75.5,42.9,78.4z M40,78.4 c0-1-0.5-1.4-1.4-1.4h-7.2v2.9h7.2C39.5,79.9,40,79.4,40,78.4z"/><path fill="#FFFFFF" d="M45.8,79.9h1.5c0.3,0,0.8-0.5,1.4-1.4l1.8-2.9l-6.2-7.2h3.8l4.2,4.8l3-4.8h3.4c-1.2,1.9-2.7,4.3-4.4,7 c-0.6,1-1.2,1.8-1.5,2.4c-0.4,0.6-0.7,1-0.9,1.3c-0.2,0.3-0.4,0.5-0.5,0.6c-0.1,0.1-0.1,0.2-0.2,0.2c-1.2,1.9-2.4,2.9-3.6,2.9h-1.8 V79.9z"/><path fill="#FFFFFF" d="M73.9,79.9h1.4v5.8h-2.9v-2.9H62.3v2.9h-2.9v-5.8h1.4v-7.4c0-2.9,1.4-4.3,4.3-4.3h4.3 c2.9,0,4.3,1.4,4.3,4.3V79.9z M71,79.9v-7.4c0-1-0.5-1.4-1.4-1.4h-4.3c-1,0-1.4,0.5-1.4,1.4v7.4H71z"/><path fill="#FFFFFF" d="M86.8,82.8H76.7V68.3h2.9v4.3h7.2c2.9,0,4.3,1.4,4.3,4.3v1.4C91.1,81.3,89.7,82.8,86.8,82.8z M88.3,77 c0-1-0.5-1.4-1.4-1.4h-7.2v4.3h7.2c1,0,1.4-0.5,1.4-1.4V77z"/><path fill="#FFFFFF" d="M119,82.8h-2.9V77h-8.6v5.8h-2.9V68.3h2.9v5.8h8.6v-5.8h2.9V82.8z"/><path fill="#FFFFFF" d="M134.8,82.8h-2.9v-2.9h-8.6v2.9h-2.9V72.4c0-2.9,1.4-4.3,4.3-4.3h5.8c2.9,0,4.3,1.4,4.3,4.3V82.8z M131.9,77v-4.6c0-1-0.5-1.4-1.4-1.4h-5.8c-1,0-1.4,0.5-1.4,1.4V77H131.9z"/><path fill="#FFFFFF" d="M162.7,78.7c0,2.9-1.4,4.3-4.3,4.3h-5.8c-2.9,0-4.3-1.4-4.3-4.3v-6.2c0-2.9,1.4-4.3,4.3-4.3h5.8 c2.9,0,4.3,1.4,4.3,4.3V78.7z M159.8,78.7v-6.2c0-1-0.5-1.4-1.4-1.4h-5.8c-1,0-1.4,0.5-1.4,1.4v6.2c0,1,0.5,1.4,1.4,1.4h5.8 C159.3,80.1,159.8,79.6,159.8,78.7z"/><path fill="#FFFFFF" d="M178.5,79.9h1.4v5.8h-2.9v-2.9H167v2.9h-2.9v-5.8h1.4v-7.4c0-2.9,1.4-4.3,4.3-4.3h4.3 c2.9,0,4.3,1.4,4.3,4.3V79.9z M175.6,79.9v-7.4c0-1-0.5-1.4-1.4-1.4h-4.3c-1,0-1.4,0.5-1.4,1.4v7.4H175.6z"/><path fill="#FFFFFF" d="M195.8,82.8h-2.9V77h-8.6v5.8h-2.9V68.3h2.9v5.8h8.6v-5.8h2.9V82.8z"/><path fill="#FFFFFF" d="M211.6,78.7c0,2.9-1.4,4.3-4.3,4.3h-5.8c-2.9,0-4.3-1.4-4.3-4.3v-6.2c0-2.9,1.4-4.3,4.3-4.3h5.8 c2.9,0,4.3,1.4,4.3,4.3V78.7z M208.7,78.7v-6.2c0-1-0.5-1.4-1.4-1.4h-5.8c-1,0-1.4,0.5-1.4,1.4v6.2c0,1,0.5,1.4,1.4,1.4h5.8 C208.3,80.1,208.7,79.6,208.7,78.7z"/><path fill="#FFFFFF" d="M227.5,82.8h-2.9v-10l-8.6,10h-2.9V68.3h2.9v10l8.6-10h2.9V82.8z M221.7,64h-2.9v2.9h2.9V64z"/><path fill="#FFFFFF" d="M255.3,78.4c0,2.9-1.4,4.3-4.3,4.3h-10.1V68.3H251c2.9,0,4.3,1.4,4.3,4.3c0,1.3-0.3,2.3-0.9,2.9 C255,76.2,255.3,77.1,255.3,78.4z M252.4,72.7c0-1-0.5-1.4-1.4-1.4h-7.2v2.9h7.2C251.9,74.1,252.4,73.6,252.4,72.7z M252.4,78.4 c0-1-0.5-1.4-1.4-1.4h-7.2v2.9h7.2C251.9,79.9,252.4,79.4,252.4,78.4z"/><path fill="#FFFFFF" d="M271.1,78.7c0,2.9-1.4,4.3-4.3,4.3h-5.8c-2.9,0-4.3-1.4-4.3-4.3v-6.2c0-2.9,1.4-4.3,4.3-4.3h5.8c2.9,0,4.3,1.4,4.3,4.3V78.7z M268.3,78.7v-6.2c0-1-0.5-1.4-1.4-1.4h-5.8c-1,0-1.4,0.5-1.4,1.4v6.2c0,1,0.5,1.4,1.4,1.4h5.8 C267.8,80.1,268.3,79.6,268.3,78.7z"/><path fill="#FFFFFF" d="M287,82.8h-2.9V71.2h-4.3c-0.7,0-1.2,0.5-1.4,1.4l-2.8,10.1h-2.9c1.8-5.8,2.7-9.1,2.9-10.1 c0.8-2.9,2.3-4.3,4.3-4.3h7.2V82.8z"/><path fill="#FFFFFF" d="M302.8,82.8h-2.9V77h-8.6v5.8h-2.9V68.3h2.9v5.8h8.6v-5.8h2.9V82.8z"/><path fill="#FFFFFF" d="M318.7,71.2h-11.5v2.9h8.6V77h-8.6v2.9h11.5v2.9h-14.4V68.3h14.4V71.2z"/><path fill="#FFFFFF" d="M346.5,82.8h-10.1c-2.9,0-4.3-1.4-4.3-4.3v-5.8c0-2.9,1.4-4.3,4.3-4.3h10.1v2.9h-10.1c-1,0-1.4,0.5-1.4,1.4 v5.8c0,1,0.5,1.4,1.4,1.4h10.1V82.8z"/><path fill="#FFFFFF" d="M374.3,82.8h-3.7l-4.6-5.8h-3.2v5.8h-2.9V68.3h2.9v5.8h3.2l4.6-5.8h3.7l-5.8,7.2L374.3,82.8z"/><path fill="#FFFFFF" d="M389.5,82.8h-2.9v-10l-8.6,10h-2.9V68.3h2.9v10l8.6-10h2.9V82.8z"/><path fill="#FFFFFF" d="M405.3,82.8h-2.9V77h-8.6v5.8h-2.9V68.3h2.9v5.8h8.6v-5.8h2.9V82.8z"/><path fill="#FFFFFF" d="M421.1,78.7c0,2.9-1.4,4.3-4.3,4.3h-5.8c-2.9,0-4.3-1.4-4.3-4.3v-6.2c0-2.9,1.4-4.3,4.3-4.3h5.8 c2.9,0,4.3,1.4,4.3,4.3V78.7z M418.3,78.7v-6.2c0-1-0.5-1.4-1.4-1.4h-5.8c-1,0-1.4,0.5-1.4,1.4v6.2c0,1,0.5,1.4,1.4,1.4h5.8 C417.8,80.1,418.3,79.6,418.3,78.7z"/></g></svg>