<?xml version="1.0" encoding="UTF-8" standalone="no"?>
<!-- Created with Inkscape (http://www.inkscape.org/) -->

<svg
   xmlns:dc="http://purl.org/dc/elements/1.1/"
   xmlns:cc="http://creativecommons.org/ns#"
   xmlns:rdf="http://www.w3.org/1999/02/22-rdf-syntax-ns#"
   xmlns:svg="http://www.w3.org/2000/svg"
   xmlns="http://www.w3.org/2000/svg"
   xmlns:sodipodi="http://sodipodi.sourceforge.net/DTD/sodipodi-0.dtd"
   xmlns:inkscape="http://www.inkscape.org/namespaces/inkscape"
   width="920"
   height="450"
   viewBox="0 0 920 450.00001"
   id="svg2"
   version="1.1"
   inkscape:version="0.91 r13725"
   sodipodi:docname="Afro Samurai logo.svg">
  <defs
     id="defs4" />
  <sodipodi:namedview
     id="base"
     pagecolor="#ffffff"
     bordercolor="#666666"
     borderopacity="1.0"
     inkscape:pageopacity="0.0"
     inkscape:pageshadow="2"
     inkscape:zoom="1.0074671"
     inkscape:cx="388.34304"
     inkscape:cy="322.43048"
     inkscape:document-units="px"
     inkscape:current-layer="layer1"
     showgrid="false"
     units="px"
     inkscape:window-width="1920"
     inkscape:window-height="1017"
     inkscape:window-x="-8"
     inkscape:window-y="-8"
     inkscape:window-maximized="1" />
  <metadata
     id="metadata7">
    <rdf:RDF>
      <cc:Work
         rdf:about="">
        <dc:format>image/svg+xml</dc:format>
        <dc:type
           rdf:resource="http://purl.org/dc/dcmitype/StillImage" />
        <dc:title></dc:title>
      </cc:Work>
    </rdf:RDF>
  </metadata>
  <g
     inkscape:label="1. réteg"
     inkscape:groupmode="layer"
     id="layer1"
     transform="translate(0,-602.36216)">
    <path
       style="fill:#000000"
       d="m 169.37345,1019.6707 0,-12 26.29999,0 c 19.12222,0 26.6275,-0.3275 27.5,-1.2 0.66,-0.66 1.2,-3.72 1.2,-6.79998 0,-3.08 -0.54,-6.14 -1.2,-6.8 -0.84951,-0.8495 -6.77514,-1.2 -20.28811,-1.2 -17.80636,0 -19.38771,-0.1511 -23.54999,-2.25 -3.4111,-1.7201 -5.1658,-3.5453 -7.45087,-7.75 -2.96133,-5.4491 -2.98854,-5.6434 -2.94154,-21 0.0281,-9.1725 0.55103,-17.2403 1.28106,-19.7631 1.43549,-4.9608 5.95466,-10.8815 9.89486,-12.5102 1.92299,-0.7949 13.16943,0 37.25459,0 l 34.5,0 0.29317,9.2733 c 0.16518,5.2249 0.0402,10.5125 -0.26905,11.75 l -0.56222,2.25 -26.28095,0 c -19.10741,0 -26.6085,0.3276 -27.48095,1.2 -1.623,1.623 -1.55957,12.2567 0.0812,13.6184 0.78514,0.6517 9.27633,1.1831 21.9298,1.3725 24.04372,0.3599 24.30022,0.4506 29.28896,10.3538 2.9312,5.8187 2.99885,6.2878 2.95005,20.4553 -0.0528,15.34008 -0.99957,20.57918 -4.69792,25.99738 -4.71783,6.9118 -5.282,6.678 -43.48649,6.678 l -34.26559,0 z m 86.99999,10.7552 c 0,-1.7267 31.52459,-90.93518 33.45167,-94.66168 4.95527,-9.5825 25.5347,-10.9978 33.81791,-2.3257 1.86082,1.9481 6.22569,12.7734 15.20995,37.7221 6.93011,19.2444 12.97504,35.36468 13.43318,35.82278 0.45813,0.4581 2.3527,0.6877 4.21013,0.5101 l 3.37716,-0.3228 0.5,-32.02908 c 0.4976,-31.8751 0.51221,-32.0529 3.03919,-36.9609 1.97141,-3.8289 3.64262,-5.4994 7.47398,-7.4708 l 4.93479,-2.3125 43.02602,0 43.02602,0 4.48743,2.2859 c 3.01617,1.5365 5.34628,4.0465 7,7 l 2.51257,4.4874 0,44.5 0,44.67538 -13,0 -13,0 -0.25495,-35.67538 c -0.22836,-31.9541 -0.42338,-35.6249 -1.94113,-36.75 -1.85029,-1.3717 -12.06739,-1.6872 -14.04107,-0.4336 -0.93718,0.5952 -1.30089,9.5025 -1.5,36.7347 l -0.26285,36.12428 -13.25,0 -13.25,0 0,-35.07488 c 0,-40.6374 0.45229,-38.6005 -8.57143,-38.6005 -4.09524,0 -5.9198,0.4912 -7.42857,2 -1.92384,1.9238 -2,3.3333 -2,37.0158 l 0,34.65958 -27.61857,0 -27.61857,0 -4.19953,-11.6754 c -2.27904,-6.3361 -7.71414,-21.28748 -12.00978,-33.24998 -4.51451,-12.572 -8.33786,-21.75 -9.06058,-21.75 -1.59364,0 -1.52151,-0.1956 -13.27137,35.99998 l -9.90093,30.6754 -13.66033,0 c -10.69309,0 -13.66034,0.1028 -13.66034,-0.9202 z m 244.37912,-0.1918 c -1.71648,-0.747 -4.24829,-2.8669 -5.62623,-4.7108 -5.12772,-6.8617 -5.25289,-8.1568 -5.25289,-54.35258 l 0,-42.7733 13.5,0 13.5,0 0.26193,38.7217 c 0.20044,29.6322 0.55806,39.13638 1.5,39.73458 0.68094,0.4325 5.83474,0.7933 11.45289,0.8017 9.08455,0.014 10.32936,-0.1987 11.25,-1.919 0.66161,-1.2362 1.03518,-15.68158 1.03518,-40.02898 l 0,-37.31 13.25,0 13.25,0 0.28458,42.2733 c 0.19813,29.43088 -0.0644,43.77418 -0.8502,46.64368 -1.43044,5.2233 -6.29274,11.1903 -10.57747,12.9805 -4.68762,1.9586 -52.455,1.9077 -56.97779,-0.061 z m 81.03231,1.112 c -1.12737,-2.9379 0.19586,-87.06668 1.42993,-90.82728 1.76938,-5.3919 7.86486,-10.7335 14.30695,-12.1214 3.54871,-0.7646 14.95219,0 33.85169,0 l 28.5,0 0.28174,11.5229 0.28173,11.75 -22.78173,0.015 c -16.35212,0.011 -23.48731,0.3716 -25.28174,1.2791 l -2.5,1.2643 -0.5,38.4709 -0.5,38.64648 -13.27019,0 c -10.76678,0 -13.37371,1.1594 -13.81838,0 z m 61.58857,0 c 0,-1.6427 31.701,-92.19688 33.53562,-95.74468 3.28902,-6.3602 15.88434,-9.9938 25.84874,-7.204 8.3244,2.3307 9.28609,4.3457 23.32154,43.2729 l 12.79975,35.49998 5.49717,0 5.49718,0 0.5,-39.49998 0.5,-39.2729 13.5,0 13.5,0 0,51.2729 0,51.67578 -29.3871,0 -29.3871,0 -9.34485,-26.1758 c -5.10906,-14.31098 -10.52363,-29.26248 -11.96436,-33.24998 -1.44072,-3.9875 -3.20365,-7.25 -3.91762,-7.25 -0.82001,0 -5.30481,12.2462 -12.17677,33.25 l -10.87866,33.42578 -13.72177,0 c -10.45205,0 -13.72177,0.9511 -13.72177,0 z m -627,-138.43478 c 0,-0.9675 9.697477,-29.205 21.54995,-62.75003 11.852472,-33.54503 31.24629,-88.44096 43.097368,-121.99096 11.851091,-33.55001 22.400392,-62.39793 23.442912,-64.10649 2.86786,-4.70009 11.02293,-11.91043 16.75784,-14.81652 2.81249,-1.4252 7.93475,-3.25641 11.38278,-4.06936 8.39626,-1.97959 30.21851,-1.96145 38.67609,0.0321 13.19151,3.10946 23.91882,11.27561 29.65843,22.57743 1.50351,2.96054 16.86554,44.74081 34.13786,92.84507 17.27232,48.10424 31.8956,88.05435 32.49618,88.77801 0.82389,0.99272 4.30915,1.24749 14.19628,1.03773 l 13.10431,-0.27801 0.58426,-75.5 c 0.62075,-80.21472 0.82814,-83.74688 5.75697,-98.04811 5.39513,-15.65421 14.92111,-25.99097 28.15877,-30.55545 5.23066,-1.80358 9.63799,-1.89645 90,-1.89645 l 84.5,0 0,32 0,32 -65.5,0.24096 c -65.37467,0.24049 -65.50335,0.24501 -67.25,2.36078 -1.50304,1.82068 -1.75,4.34485 -1.75,17.88661 0,11.98007 0.32273,16.03461 1.34374,16.88197 0.95131,0.78952 20.5912,1.19033 67.25,1.37245 l 65.90626,0.25724 0,32 0,32 -65.90626,0.25724 c -46.3853,0.18105 -66.30155,0.5853 -67.24082,1.36482 -1.07379,0.89117 -1.38519,10.90369 -1.59374,51.24276 l -0.25918,50.38521 -77.14065,0 c -72.77613,0.2417 -77.18002,0.1629 -77.83636,-1.4939 -0.38264,-0.9659 -14.20299,-39.33113 -30.71187,-85.25613 -16.5089,-45.925 -30.62016,-84.95792 -31.35837,-86.73983 -0.85511,-2.06411 -1.84528,-3.04677 -2.72853,-2.70783 -0.76722,0.29441 -3.97515,8.66344 -7.18314,18.73982 -12.83046,40.30077 -50.914591,155.28867 -51.819011,156.45787 -0.74214,0.9593 -9.424851,1 -37.344515,1 -34.049815,0 -36.377554,0.1374 -36.377554,-1.5091 z m 503.43202,0.4424 c -0.28321,-0.738 -0.35748,-50.80618 -0.16505,-111.26261 0.31976,-100.45989 0.50069,-110.56632 2.10216,-117.42079 2.0546,-8.79392 6.20218,-18.18828 10.02632,-22.70983 4.24261,-5.01635 15.42151,-11.90717 23.97488,-14.77844 12.85142,-4.31408 25.48438,-4.62652 174.12967,-4.3066 l 137,0.29487 6,2.40855 c 8.28312,3.32505 17.72697,12.95464 22.64606,23.09145 7.86669,16.21097 7.29273,8.19497 7.62563,106.50001 0.30925,91.32183 0.12688,96.35058 -3.88283,107.06749 -4.46553,11.9352 -15.44381,24.0735 -26.86352,29.7021 l -4.52534,2.4804 -71.5,0 -71.5,0 -5.78458,-2.5848 c -8.71698,-3.5184 -16.82868,-11.5558 -21.73038,-21.5314 -2.1982,-4.4736 -4.99849,-11.73379 -6.22286,-16.13379 -2.20075,-7.90877 -2.2296,-8.88903 -2.52935,-85.96273 -0.23258,-59.79979 -0.58623,-78.14259 -1.51802,-78.7347 -0.66815,-0.42458 -19.66481,-0.77815 -42.21481,-0.78571 -45.16542,-0.0152 -45.30408,0.002 -49.92892,6.30603 -2.05323,2.79858 -2.07539,3.66901 -2.57108,101.00001 l -0.5,98.42709 -35.77653,0 c -29.18782,0.2143 -35.87135,0.028 -36.29145,-1.0666 z m 308.93707,-65.19534 c 0.83157,-0.83157 1.78728,-3.41907 2.12379,-5.75 0.33651,-2.33093 0.47578,-32.74051 0.30948,-67.57684 l -0.30236,-63.33881 -2.36078,-1.9112 c -2.20609,-1.78597 -4.31211,-1.91121 -32.13922,-1.91121 -27.82765,0 -29.93309,0.12521 -32.13922,1.9113 l -2.36078,1.91129 -0.29274,64.33872 c -0.161,35.38628 -0.0308,65.78673 0.28929,67.55655 1.15807,6.40277 0.4956,6.28215 34.50345,6.28215 26.20361,0 31.08516,-0.22802 32.36909,-1.51195 z"
       id="path3347"
       inkscape:connector-curvature="0"
       sodipodi:nodetypes="ccssssssssssscsccsccsssssccsscssccssscscsscccccsccscccsscscccsssscsscsscccscccscccscccccscsccccscccscssssscccccccccccsssscsccsssssssssscsssscccssssscccssscsssssscscscssssscssssccccsssssscscssssscssscsss" />
  </g>
</svg>
